HIERARCHY
ROOT RootJoint
{
    OFFSET   0.000000   0.000000   0.000000
    CHANNELS 6 Xposition Yposition Zposition Xrotation Yrotation Zrotation
    JOINT pelvis_lowerback
    {
        OFFSET   0.000000   0.093605   0.000000
        CHANNELS 3 Xrotation Yrotation Zrotation
        JOINT lowerback_torso
        {
            OFFSET   0.000000   0.100000   0.000000
            CHANNELS 3 Xrotation Yrotation Zrotation
            JOINT torso_head
            {
                OFFSET   0.000000   0.282350   0.000000
                CHANNELS 3 Xrotation Yrotation Zrotation
                End Site
                {
                    OFFSET   0.000000   0.192650   0.000000
                }
            }
            JOINT rTorso_Clavicle
            {
                OFFSET  -0.001000   0.157500   0.000000
                CHANNELS 3 Xrotation Yrotation Zrotation
                JOINT rShoulder
                {
                    OFFSET  -0.117647   0.000000   0.000000
                    CHANNELS 3 Xrotation Yrotation Zrotation
                    JOINT rElbow
                    {
                        OFFSET  -0.245000   0.000000   0.000000
                        CHANNELS 3 Xrotation Yrotation Zrotation
                        JOINT rWrist
                        {
                            OFFSET  -0.240000   0.000000   0.000000
                            CHANNELS 3 Xrotation Yrotation Zrotation
                            End Site
                            {
                                OFFSET  -0.116353  -0.002500   0.000000
                            }
                        }
                    }
                }
            }
            JOINT lTorso_Clavicle
            {
                OFFSET   0.001000   0.157500   0.000000
                CHANNELS 3 Xrotation Yrotation Zrotation
                JOINT lShoulder
                {
                    OFFSET   0.117647   0.000000   0.000000
                    CHANNELS 3 Xrotation Yrotation Zrotation
                    JOINT lElbow
                    {
                        OFFSET   0.245000   0.000000   0.000000
                        CHANNELS 3 Xrotation Yrotation Zrotation
                        JOINT lWrist
                        {
                            OFFSET   0.240000   0.000000   0.000000
                            CHANNELS 3 Xrotation Yrotation Zrotation
                            End Site
                            {
                                OFFSET   0.116353  -0.002500   0.000000
                            }
                        }
                    }
                }
            }
        }
    }
    JOINT rHip
    {
        OFFSET  -0.100000  -0.051395   0.000000
        CHANNELS 3 Xrotation Yrotation Zrotation
        JOINT rKnee
        {
            OFFSET   0.000000  -0.410000   0.000000
            CHANNELS 3 Xrotation Yrotation Zrotation
            JOINT rAnkle
            {
                OFFSET   0.000000  -0.390000   0.000000
                CHANNELS 3 Xrotation Yrotation Zrotation
                JOINT rToeJoint
                {
                    OFFSET   0.000000  -0.050000   0.130000
                    CHANNELS 3 Xrotation Yrotation Zrotation
                    End Site
                    {
                        OFFSET  -0.010000   0.002000   0.060000
                    }
                }
            }
        }
    }
    JOINT lHip
    {
        OFFSET   0.100000  -0.051395   0.000000
        CHANNELS 3 Xrotation Yrotation Zrotation
        JOINT lKnee
        {
            OFFSET   0.000000  -0.410000   0.000000
            CHANNELS 3 Xrotation Yrotation Zrotation
            JOINT lAnkle
            {
                OFFSET   0.000000  -0.390000   0.000000
                CHANNELS 3 Xrotation Yrotation Zrotation
                JOINT lToeJoint
                {
                    OFFSET   0.000000  -0.050000   0.130000
                    CHANNELS 3 Xrotation Yrotation Zrotation
                    End Site
                    {
                        OFFSET   0.010000   0.002000   0.060000
                    }
                }
            }
        }
    }
}
MOTION
Frames: 15
Frame Time:   0.008333
 -2.376719   0.925631   3.975860   0.000000   0.000000   0.000000   0.000000   0.000000   0.000000   0.000000   0.000000   0.000000   0.000000   0.000000   0.000000   0.000000   0.000000   0.000000   0.000000   0.000000   0.000000   0.000000   0.000000   0.000000   0.000000   0.000000   0.000000   0.000000   0.000000   0.000000   0.000000   0.000000   0.000000   0.000000   0.000000   0.000000   0.000000   0.000000   0.000000   0.000000   0.000000   0.000000   0.000000   0.000000   0.000000   0.000000   0.000000   0.000000   0.000000   0.000000   0.000000   0.000000   0.000000   0.000000   0.000000   0.000000   0.000000   0.000000   0.000000   0.000000   0.000000   0.000000   0.000000
 -2.376197   0.926009   3.975957  -0.952988   0.562845   0.299881   0.987933  -0.240671  -0.354122   0.294438  -0.120220   0.107837  -0.042625   0.523003  -0.228421   0.019096  -0.440561   0.159064  -0.054837   0.171500   2.202744   0.019705   0.938304  -0.002562   0.185396  -0.495252  -2.913870  -0.139166  -0.139237   0.151516   0.618858  -0.218976  -2.369077   0.022808  -1.195755   0.008731   0.216766   0.852477   2.224394   0.937867  -0.255778  -0.508080   0.437584   0.000835   0.001188  -0.254821  -0.463150   0.062541   0.360047   0.000485  -0.000476   0.559416  -0.227704  -0.335242   1.539734   0.000626   0.004532  -1.132386   0.502739   0.327017   0.125126  -0.000314   0.000919
 -2.375418   0.926695   3.976003  -1.977364   1.243984   0.620205   1.949598  -0.520247  -0.663335   0.695008  -0.313359   0.234389  -0.033650   1.039017  -0.468183   0.043829  -0.833199   1.001497  -0.121981   0.383291   4.951585   0.045424   1.856595  -0.004634   0.379221  -0.686748  -5.145852  -0.265609  -0.425589  -0.318006   1.208043  -0.615565  -5.230485   0.052471  -2.391507   0.016004   0.453400   1.251475   3.734897   1.862058  -0.508346  -1.149176   0.969346   0.002343   0.002977  -0.484359  -0.901435   0.116214   0.711392   0.001314  -0.000381   1.205313  -0.424320  -0.645617   3.210309   0.001136   0.010796  -2.186897   0.974323   0.641789   0.207558  -0.000466   0.001429
 -2.374463   0.927321   3.975994  -2.961343   1.956198   0.924461   2.846841  -0.825254  -0.901472   1.086705  -0.545441   0.397657  -0.017958   1.523233  -0.697309   0.073376  -1.160488   2.268689  -0.203429   0.619973   8.035818   0.070808   2.728091  -0.005862   0.572155  -0.748969  -6.577186  -0.390572  -0.792413  -1.183558   1.757009  -1.126204  -8.405747   0.081646  -3.540239   0.021279   0.689931   1.400114   4.540483   2.681948  -0.756172  -1.853008   1.479761   0.003968   0.004473  -0.696707  -1.311245   0.163480   1.035186   0.002220  -0.000131   1.879484  -0.602391  -0.886593   4.818895   0.001464   0.016331  -3.171355   1.410645   0.944111   0.283303  -0.000581   0.001794
 -2.373354   0.927606   3.975948  -3.885594   2.660609   1.208832   3.681680  -1.142815  -1.068332   1.450812  -0.796293   0.607176  -0.005211   1.975550  -0.915273   0.107691  -1.433143   3.830545  -0.294786   0.860035  11.196994   0.092395   3.550423  -0.006445   0.761563  -0.742381  -7.330417  -0.517117  -1.200859  -2.299403   2.256189  -1.715765 -11.759798   0.106667  -4.632644   0.024946   0.923888   1.402661   4.815141   3.390829  -0.999001  -2.599598   1.944894   0.005438   0.005441  -0.895272  -1.694539   0.205172   1.326617   0.003054   0.000093   2.566659  -0.767102  -1.062038   6.340330   0.001683   0.020510  -4.092446   1.813897   1.234151   0.347254  -0.000647   0.001971
 -2.372153   0.927326   3.975884  -4.749054   3.335285   1.478381   4.460168  -1.465523  -1.176370   1.788842  -1.056690   0.843986   0.003660   2.398006  -1.115211   0.146048  -1.664236   5.558030  -0.393970   1.094287  14.344468   0.108888   4.322960  -0.006550   0.945614  -0.699055  -7.609495  -0.645635  -1.628928  -3.596069   2.682777  -2.334508 -15.075655   0.125480  -5.667421   0.027228   1.153046   1.305314   4.662109   3.996638  -1.235238  -3.377176   2.363134   0.006617   0.005906  -1.081486  -2.053192   0.241887   1.587546   0.003734   0.000232   3.260754  -0.920893  -1.181954   7.776109   0.001775   0.023292  -4.954333   2.186386   1.511805   0.400731  -0.000674   0.002004
 -2.370907   0.926321   3.975816  -5.554212   3.968827   1.734727   5.187615  -1.787876  -1.236435   2.104500  -1.319779   1.101238   0.010110   2.792337  -1.299449   0.188052  -1.866095   7.358068  -0.498484   1.315409  17.418513   0.120096   5.046172  -0.006298   1.122402  -0.639568  -7.573139  -0.776947  -2.057612  -4.975062   3.042283  -2.962464 -18.289947   0.137851  -6.643205   0.028510   1.374252   1.146353   4.242731   4.509752  -1.463139  -4.174011   2.737566   0.007464   0.005970  -1.256158  -2.388765   0.274265   1.821819   0.004235   0.000283   3.957120  -1.065365  -1.254491   9.131198   0.001744   0.024845  -5.760603   2.530457   1.777103   0.446033  -0.000675   0.001942
 -2.369733   0.924125   3.975306  -5.872955   4.263735   1.684047   5.565579  -1.873015  -0.901096   2.269332  -1.569060   1.315272  -0.085713   3.106672  -1.529345   0.323057  -1.931949   8.630100  -0.503201   1.520924  20.337036   0.127511   5.818944  -0.007206   1.196182  -0.654868  -6.779304  -0.644619  -2.359193  -5.680855   3.560476  -3.697287 -21.875732   0.135903  -7.357650   0.030644   1.611007   0.641817   3.384195   4.239450  -1.636315  -4.617000   3.760115   0.010780   0.005092  -1.792408  -2.596550   0.471963   1.986618   0.003848  -0.000002   4.454721  -1.106483  -1.087077   9.125867   0.001387   0.019864  -5.327454   2.730242   2.089859   0.558907  -0.000916   0.001995
 -2.368586   0.921626   3.974455  -6.072669   4.580203   1.621588   5.937915  -1.973603  -0.543901   2.395617  -1.804673   1.544150  -0.197128   3.393709  -1.733556   0.443601  -1.972776   9.729187  -0.520728   1.724534  22.992017   0.128982   6.545138  -0.008097   1.270218  -0.653281  -6.041947  -0.523661  -2.637900  -6.288436   4.007468  -4.405942 -25.192406   0.130375  -8.017988   0.031769   1.840646   0.165919   2.499116   3.996759  -1.677600  -4.844549   4.744657   0.011563   0.005732  -2.538200  -2.638362   0.754723  -0.176249   0.002446  -0.003397   4.819969  -1.270258  -1.087132   8.857190   0.000715   0.015580  -5.329345   2.770856   2.268115  -3.503610   0.001170  -0.005183
 -2.367461   0.921022   3.973293  -6.286586   4.945311   1.508825   6.390418  -2.076356  -0.124298   2.570031  -2.027408   1.800768  -0.300549   3.660188  -1.918426   0.546858  -1.983331  10.811439  -0.551881   1.927901  25.464633   0.127451   7.224028  -0.009236   1.341726  -0.646803  -5.451979  -0.427066  -2.921525  -6.952807   4.378810  -5.106187 -28.309918   0.123883  -8.635617   0.032226   2.054545  -0.282454   1.721519   3.715078  -1.830988  -4.796493   5.733827   0.010267   0.005749  -2.977485  -2.796086   1.076888  -0.227017   0.002057  -0.002716   5.149268  -1.321809  -1.040905   8.518782   0.000001   0.011619  -5.644858   2.946393   2.410506  -2.997372   0.000871  -0.001953
 -2.366205   0.920632   3.972021  -6.465485   5.307210   1.541283   6.828157  -2.159809   0.186185   2.752167  -2.226804   2.007914  -0.384523   3.908528  -2.086821   0.644107  -1.990843  11.757821  -0.588746   2.120257  27.762673   0.122962   7.861077  -0.010186   1.413005  -0.625424  -4.864433  -0.344049  -3.180642  -7.498079   4.691536  -5.776856 -31.198475   0.115931  -9.215240   0.031778   2.254536  -0.728564   0.937931   3.444764  -1.981490  -4.900357   6.608126   0.009169   0.005725  -3.382040  -2.967520   1.237986  -0.238650   0.001652  -0.002172   5.390239  -1.358130  -1.162662   8.216827  -0.000549   0.008485  -5.711766   3.108499   2.586822  -2.530745   0.000579   0.000459
 -2.364927   0.920284   3.970712  -6.622853   5.656538   1.614517   7.256076  -2.216535   0.479515   2.936624  -2.395176   2.192640  -0.456456   4.140407  -2.244962   0.732850  -1.996148  12.582229  -0.631258   2.299007  29.872022   0.116423   8.456568  -0.010876   1.482272  -0.600102  -4.350008  -0.270434  -3.408516  -7.957894   4.956465  -6.406354 -33.865170   0.107016  -9.754228   0.030528   2.440205  -1.148497   0.222803   3.187342  -2.124055  -5.048970   7.400729   0.008223   0.005600  -3.750810  -3.138512   1.367744  -0.216479   0.001317  -0.001738   5.586749  -1.394231  -1.328920   7.942358  -0.000925   0.006069  -5.720174   3.252565   2.757407  -2.098716   0.000400   0.002135
 -2.363681   0.919944   3.969396  -6.762409   5.998248   1.701051   7.670424  -2.248784   0.766522   3.120924  -2.532957   2.369224  -0.519193   4.356866  -2.390850   0.813925  -2.000989  13.302904  -0.677809   2.463546  31.808081   0.108670   9.012506  -0.011327   1.548787  -0.576259  -3.920205  -0.201417  -3.603503  -8.346337   5.183498  -6.990695 -36.327861   0.097666 -10.253029   0.028665   2.612594  -1.528532  -0.413376   2.942016  -2.262265  -5.210436   8.127663   0.007384   0.005410  -4.097350  -3.308679   1.482591  -0.129751   0.001043  -0.001393   5.754388  -1.431771  -1.506442   7.684168  -0.001175   0.004193  -5.712604   3.382627   2.917837  -1.776931   0.000305   0.002966
 -2.362496   0.919636   3.968214  -6.783271   6.482097   1.714109   7.918660  -2.236758   1.088661   3.286279  -2.729799   2.621747  -0.557193   4.502866  -2.597551   0.843117  -2.051651  13.598849  -0.741299   2.579925  33.314121   0.098680   9.581717  -0.011465   1.532226  -0.627689  -2.768111  -0.143334  -3.704262  -8.484238   5.310353  -7.544580 -38.580788   0.084098 -10.558178   0.024721   2.749591  -2.012603  -1.402429   2.737903  -2.434541  -5.279213   8.604522   0.006428   0.005425  -4.466286  -3.602844   1.558953   0.049908   0.000845  -0.001127   5.886735  -1.612235  -1.534167   7.221019  -0.001410   0.002157  -5.699471   3.052423   3.028016  -1.344407   0.000226   0.002333
 -2.361379   0.919367   3.967017  -6.760923   6.974852   1.716930   8.134542  -2.174419   1.398475   3.413613  -2.878107   2.846880  -0.596252   4.637544  -2.780774   0.856112  -2.104206  13.628454  -0.812169   2.685797  34.542735   0.087263  10.116718  -0.011673   1.514362  -0.673761  -1.841215  -0.084335  -3.761501  -8.454473   5.427542  -8.029272 -40.577439   0.071639 -10.828645   0.020918   2.870404  -2.403441  -2.247608   2.530125  -2.644292  -5.340921   8.997356   0.005558   0.005157  -4.828385  -3.935849   1.625994   0.383347   0.000705  -0.001111   5.988631  -1.808573  -1.547597   6.719567  -0.001577   0.000457  -5.649791   2.712327   3.118440  -0.949406   0.000189   0.001770
